<mxfile host="app.diagrams.net" modified="2023-10-23T21:30:38.937Z" agent="Mozilla/5.0 (Windows NT 10.0; Win64; x64; rv:109.0) Gecko/20100101 Firefox/118.0" etag="_idyy8GDEWXvntlQVC6_" version="22.0.6" type="device">
  <diagram id="R2lEEEUBdFMjLlhIrx00" name="Page-1">
    <mxGraphModel dx="880" dy="462" grid="1" gridSize="10" guides="1" tooltips="1" connect="1" arrows="1" fold="1" page="1" pageScale="1" pageWidth="850" pageHeight="1100" math="0" shadow="0" extFonts="Permanent Marker^https://fonts.googleapis.com/css?family=Permanent+Marker">
      <root>
        <mxCell id="0" />
        <mxCell id="1" parent="0" />
        <mxCell id="OBSvLUt_weao9toceZFf-20" value="" style="edgeStyle=entityRelationEdgeStyle;fontSize=12;html=1;endArrow=ERoneToMany;rounded=0;exitX=1;exitY=0.5;exitDx=0;exitDy=0;startArrow=ERone;startFill=0;" edge="1" parent="1" source="C-vyLk0tnHw3VtMMgP7b-17">
          <mxGeometry width="100" height="100" relative="1" as="geometry">
            <mxPoint x="780.88" y="352.99" as="sourcePoint" />
            <mxPoint x="750" y="95" as="targetPoint" />
          </mxGeometry>
        </mxCell>
        <mxCell id="OBSvLUt_weao9toceZFf-23" value="Persona" style="whiteSpace=wrap;html=1;align=center;" vertex="1" parent="1">
          <mxGeometry x="210" y="70" width="100" height="40" as="geometry" />
        </mxCell>
        <mxCell id="OBSvLUt_weao9toceZFf-24" value="Movimientos_Financieros" style="whiteSpace=wrap;html=1;align=center;" vertex="1" parent="1">
          <mxGeometry x="390" y="90" width="160" height="40" as="geometry" />
        </mxCell>
        <mxCell id="OBSvLUt_weao9toceZFf-25" value="Comercio" style="whiteSpace=wrap;html=1;align=center;" vertex="1" parent="1">
          <mxGeometry x="630" y="40" width="100" height="40" as="geometry" />
        </mxCell>
        <mxCell id="OBSvLUt_weao9toceZFf-28" value="" style="edgeStyle=entityRelationEdgeStyle;fontSize=12;html=1;endArrow=ERzeroToMany;endFill=1;rounded=0;exitX=1;exitY=0.5;exitDx=0;exitDy=0;entryX=0;entryY=0.25;entryDx=0;entryDy=0;startArrow=ERone;startFill=0;" edge="1" parent="1" source="OBSvLUt_weao9toceZFf-23" target="OBSvLUt_weao9toceZFf-24">
          <mxGeometry width="100" height="100" relative="1" as="geometry">
            <mxPoint x="380" y="250" as="sourcePoint" />
            <mxPoint x="480" y="150" as="targetPoint" />
          </mxGeometry>
        </mxCell>
        <mxCell id="OBSvLUt_weao9toceZFf-29" value="Detalle_gasto" style="whiteSpace=wrap;html=1;align=center;" vertex="1" parent="1">
          <mxGeometry x="420" y="170" width="100" height="40" as="geometry" />
        </mxCell>
        <mxCell id="OBSvLUt_weao9toceZFf-30" value="" style="edgeStyle=entityRelationEdgeStyle;fontSize=12;html=1;endArrow=ERoneToMany;rounded=0;startArrow=ERone;startFill=0;entryX=1;entryY=0;entryDx=0;entryDy=0;exitX=0;exitY=0.5;exitDx=0;exitDy=0;" edge="1" parent="1" source="OBSvLUt_weao9toceZFf-25" target="OBSvLUt_weao9toceZFf-24">
          <mxGeometry width="100" height="100" relative="1" as="geometry">
            <mxPoint x="540" as="sourcePoint" />
            <mxPoint x="590" y="70" as="targetPoint" />
            <Array as="points">
              <mxPoint x="500" y="120" />
              <mxPoint x="480" y="100" />
              <mxPoint x="490" y="110" />
            </Array>
          </mxGeometry>
        </mxCell>
        <mxCell id="OBSvLUt_weao9toceZFf-31" value="" style="edgeStyle=entityRelationEdgeStyle;fontSize=12;html=1;endArrow=ERoneToMany;rounded=0;startArrow=ERone;startFill=0;entryX=1;entryY=0.75;entryDx=0;entryDy=0;" edge="1" parent="1" target="OBSvLUt_weao9toceZFf-29">
          <mxGeometry width="100" height="100" relative="1" as="geometry">
            <mxPoint x="550" y="110" as="sourcePoint" />
            <mxPoint x="250" y="140" as="targetPoint" />
            <Array as="points">
              <mxPoint x="310" y="260" />
              <mxPoint x="290" y="240" />
              <mxPoint x="300" y="250" />
            </Array>
          </mxGeometry>
        </mxCell>
      </root>
    </mxGraphModel>
  </diagram>
</mxfile>
